<svg xmlns="http://www.w3.org/2000/svg" class="cat-rig cat-rig--thinking" viewBox="0 0 260 274" aria-hidden="true" focusable="false">
  <g transform="translate(0 14)">
  <ellipse cx="115" cy="245" rx="79" ry="4" fill="#2b2b56" opacity=".09"/>
  <g class="thought-tail">
    <path d="M120 228 C159 244 190 225 183 201 C179 184 164 185 167 170" fill="none" stroke="#2d3156" stroke-width="16" stroke-linecap="round"/>
    <path d="M175 190 Q163 182 167 170" fill="none" stroke="#91adf0" stroke-width="16" stroke-linecap="round"/>
  </g>
  <path d="M84 168 C69 185 64 215 70 233 Q77 245 104 243 Q133 244 142 231 C146 210 137 184 124 168Z" fill="#2d3156"/>
  <path d="M94 179 Q105 184 115 177 Q125 199 116 213 Q106 224 96 213 Q87 196 94 179Z" fill="#bed0fa"/>
  <path d="M77 227 Q76 213 84 203" fill="none" stroke="#4a587e" stroke-width="2.5" stroke-linecap="round"/>
  <g class="thought-head"><g xmlns="http://www.w3.org/2000/svg" transform="translate(0 64)">
      <g><path d="M62 73 L55 31 Q55 24 64 28 L90 52Z" fill="#2d3156"/><path d="M66 56 L64 38 L79 52Z" fill="#a2bafa"/></g>
      <g><path d="M120 53 L146 28 Q155 24 154 33 L148 76Z" fill="#2d3156"/><path d="M134 52 L146 38 L143 59Z" fill="#a2bafa"/></g>
      <path d="M61 69 Q63 48 86 47 Q106 43 126 48 Q148 52 150 74 Q157 91 145 104 Q133 117 106 117 Q77 118 63 104 Q53 91 61 69Z" fill="#2d3156"/>
      <path d="M86 50 Q96 46 104 47" fill="none" stroke="#606b95" stroke-width="2.5" stroke-linecap="round"/>
      <g class="thought-eyes"><g>
        <ellipse cx="85" cy="80" rx="11" ry="12.5" fill="#8FCFF5"/><ellipse cx="126" cy="80" rx="11" ry="12.5" fill="#8FCFF5"/>
        <g transform="translate(2 -3)"><ellipse cx="86" cy="80" rx="4.5" ry="8.5" fill="#171c38"/><ellipse cx="125" cy="80" rx="4.5" ry="8.5" fill="#171c38"/><circle cx="83.5" cy="77" r="2.2" fill="#fff"/><circle cx="122.5" cy="77" r="2.2" fill="#fff"/></g>
      </g></g>
      <ellipse cx="98" cy="99" rx="10" ry="7" fill="#414b70"/><ellipse cx="114" cy="99" rx="10" ry="7" fill="#414b70"/>
      <path d="M101 94 Q106 92 111 94 L106 99Z" fill="#bed0fa"/>
      <path d="M106 99 V102 M106 102 Q101 107 97 103 M106 102 Q111 107 115 103" fill="none" stroke="#bed0fa" stroke-width="1.7" stroke-linecap="round"/>
      <g fill="none" stroke="#8299c2" stroke-width="1.5" stroke-linecap="round"><path d="M78 97 L55 94 M77 103 L55 106 M134 97 L158 94 M135 103 L158 107"/></g>
    </g></g>
  <path d="M89 208 Q84 224 85 236" fill="none" stroke="#2d3156" stroke-width="15" stroke-linecap="round"/>
  <ellipse cx="84" cy="237" rx="13" ry="7" fill="#3d476d"/>
  <path d="M79 236 V240 M86 237 V241" fill="none" stroke="#899fc9" stroke-width="1.5" stroke-linecap="round"/>
  <g class="thought-paw">
    <path d="M131 210 Q143 198 131 180" fill="none" stroke="#2d3156" stroke-width="17" stroke-linecap="round"/>
    <ellipse cx="131" cy="179" rx="10" ry="7" fill="#3d476d" transform="rotate(-20 131 179)"/>
    <path d="M127 177 L129 181 M133 175 L135 179" fill="none" stroke="#899fc9" stroke-width="1.5" stroke-linecap="round"/>
  </g>
  </g>
  <g class="thought-cloud" fill="#fff" stroke="#b7c6eb" stroke-width="1.8">
    <circle cx="164" cy="116" r="3"/><circle cx="177" cy="98" r="5"/>
    <path d="M149 82 C129 85 119 65 132 51 C125 36 139 22 153 24 C159 7 184 7 198 21 C218 12 239 28 231 45 C250 57 240 80 221 81Z"/>
  </g>
  <g class="thought-icon thought-icon--diagram" fill="#edf0fb" stroke="#4c50a6" stroke-width="2.2" stroke-linejoin="round">
    <path d="M184 44 V53 M166 61 V53 H202 V61" fill="none"/>
    <rect x="173" y="30" width="22" height="14" rx="3"/>
    <rect x="155" y="61" width="22" height="14" rx="3"/>
    <rect x="191" y="61" width="22" height="14" rx="3"/>
  </g>
  <g class="thought-icon thought-icon--gear" fill="#edf0fb" stroke="#4c50a6" stroke-width="2" stroke-linejoin="round">
    <path d="M201.00,50.00 L205.80,52.93 L203.60,59.99 L197.91,59.78 L196.02,62.02 L197.35,67.49 L190.80,70.92 L186.92,66.75 L184.00,67.00 L181.07,71.80 L174.01,69.60 L174.22,63.91 L171.98,62.02 L166.51,63.35 L163.08,56.80 L167.25,52.92 L167.00,50.00 L162.20,47.07 L164.40,40.01 L170.09,40.22 L171.98,37.98 L170.65,32.51 L177.20,29.08 L181.08,33.25 L184.00,33.00 L186.93,28.20 L193.99,30.40 L193.78,36.09 L196.02,37.98 L201.49,36.65 L204.92,43.20 L200.75,47.08Z"/><circle cx="184" cy="50" r="7" fill="#fff"/>
  </g>
  <g class="thought-icon thought-icon--code" fill="none" stroke="#4c50a6" stroke-width="2" stroke-linecap="round" stroke-linejoin="round">
    <rect x="154" y="30" width="59" height="44" rx="5" fill="#edf0fb"/>
    <path d="M154 40 H213"/><circle cx="161" cy="35" r="1" fill="#4c50a6" stroke="none"/><circle cx="166" cy="35" r="1" fill="#477acd" stroke="none"/><circle cx="171" cy="35" r="1" fill="#93dce7" stroke="none"/>
    <path d="M168 49 L163 53 L168 57 M177 49 L182 53 L177 57 M187 51 H204 M187 56 H198 M163 65 H190"/>
  </g>
</svg>
