<svg xmlns="http://www.w3.org/2000/svg" class="cat-rig cat-rig--typing" viewBox="0 0 280 230" aria-hidden="true" focusable="false">
  <ellipse cx="155" cy="216" rx="103" ry="4" fill="#2b2b56" opacity=".09"/>
  <path d="M161 177 C196 195 227 181 225 156 C223 139 207 138 211 122" fill="none" stroke="#2d3156" stroke-width="16" stroke-linecap="round"/>
  <path d="M217 143 Q207 135 211 122" fill="none" stroke="#91adf0" stroke-width="16" stroke-linecap="round"/>
  <path d="M114 107 C99 126 95 153 100 183 Q108 197 136 196 Q165 198 175 183 C179 161 168 128 154 107Z" fill="#2d3156"/>
  <path d="M123 118 Q136 123 146 117 Q157 140 146 155 Q136 165 126 154 Q117 140 123 118Z" fill="#bed0fa"/>
  <g class="typing-head"><g xmlns="http://www.w3.org/2000/svg" transform="translate(30 0)">
      <g><path d="M62 73 L55 31 Q55 24 64 28 L90 52Z" fill="#2d3156"/><path d="M66 56 L64 38 L79 52Z" fill="#a2bafa"/></g>
      <g><path d="M120 53 L146 28 Q155 24 154 33 L148 76Z" fill="#2d3156"/><path d="M134 52 L146 38 L143 59Z" fill="#a2bafa"/></g>
      <path d="M61 69 Q63 48 86 47 Q106 43 126 48 Q148 52 150 74 Q157 91 145 104 Q133 117 106 117 Q77 118 63 104 Q53 91 61 69Z" fill="#2d3156"/>
      <path d="M86 50 Q96 46 104 47" fill="none" stroke="#606b95" stroke-width="2.5" stroke-linecap="round"/>
      <g class="typing-eyes"><g>
        <ellipse cx="85" cy="80" rx="11" ry="12.5" fill="#8FCFF5"/><ellipse cx="126" cy="80" rx="11" ry="12.5" fill="#8FCFF5"/>
        <g transform="translate(0 2)"><ellipse cx="86" cy="80" rx="4.5" ry="8.5" fill="#171c38"/><ellipse cx="125" cy="80" rx="4.5" ry="8.5" fill="#171c38"/><circle cx="83.5" cy="77" r="2.2" fill="#fff"/><circle cx="122.5" cy="77" r="2.2" fill="#fff"/></g>
      </g></g>
      <ellipse cx="98" cy="99" rx="10" ry="7" fill="#414b70"/><ellipse cx="114" cy="99" rx="10" ry="7" fill="#414b70"/>
      <path d="M101 94 Q106 92 111 94 L106 99Z" fill="#bed0fa"/>
      <path d="M106 99 V102 M106 102 Q101 107 97 103 M106 102 Q111 107 115 103" fill="none" stroke="#bed0fa" stroke-width="1.7" stroke-linecap="round"/>
      <g fill="none" stroke="#8299c2" stroke-width="1.5" stroke-linecap="round"><path d="M78 97 L55 94 M77 103 L55 106 M134 97 L158 94 M135 103 L158 107"/></g>
    </g></g>
  <g class="typing-keyboard">
    <path d="M65 199 H253 V208 Q253 212 249 212 H69 Q65 212 65 208Z" fill="#3d476d"/>
    <path d="M82 172 H232 Q235 172 237 177 L253 200 Q254 204 250 204 H68 Q64 204 67 199 L78 177 Q79 173 82 172Z" fill="#b7c8ef" stroke="#6476a6" stroke-width="1.6"/>
    <g fill="#edf0fb" stroke="#93a9d7" stroke-width="1">
      <rect x="86" y="178" width="15" height="8" rx="2"/><rect class="typing-key-left" x="104" y="178" width="15" height="8" rx="2"/>
      <rect x="122" y="178" width="15" height="8" rx="2"/><rect x="140" y="178" width="15" height="8" rx="2"/>
      <rect class="typing-key-right" x="158" y="178" width="15" height="8" rx="2"/><rect x="176" y="178" width="15" height="8" rx="2"/>
      <rect x="194" y="178" width="15" height="8" rx="2"/><rect x="212" y="178" width="15" height="8" rx="2"/>
      <rect x="80" y="189" width="20" height="8" rx="2"/><rect x="103" y="189" width="19" height="8" rx="2"/>
      <rect x="125" y="189" width="64" height="8" rx="2"/><rect x="192" y="189" width="19" height="8" rx="2"/>
      <rect x="214" y="189" width="22" height="8" rx="2"/>
    </g>
  </g>
  <g class="typing-paw typing-paw--left">
    <path d="M116 145 Q106 157 110 175" fill="none" stroke="#2d3156" stroke-width="17" stroke-linecap="round"/>
    <ellipse cx="111" cy="175" rx="12" ry="7" fill="#3d476d"/>
    <path d="M107 174 V179 M114 174 V179" fill="none" stroke="#899fc9" stroke-width="1.5" stroke-linecap="round"/>
  </g>
  <g class="typing-paw typing-paw--right">
    <path d="M159 145 Q170 157 166 175" fill="none" stroke="#2d3156" stroke-width="17" stroke-linecap="round"/>
    <ellipse cx="166" cy="175" rx="12" ry="7" fill="#3d476d"/>
    <path d="M162 174 V179 M169 174 V179" fill="none" stroke="#899fc9" stroke-width="1.5" stroke-linecap="round"/>
  </g>
</svg>
